<?xml version="1.0" encoding="UTF-8" standalone="no"?>
<!-- Created with Inkscape (http://www.inkscape.org/) -->

<svg
   xmlns:dc="http://purl.org/dc/elements/1.1/"
   xmlns:cc="http://creativecommons.org/ns#"
   xmlns:rdf="http://www.w3.org/1999/02/22-rdf-syntax-ns#"
   xmlns:svg="http://www.w3.org/2000/svg"
   xmlns="http://www.w3.org/2000/svg"
   xmlns:sodipodi="http://sodipodi.sourceforge.net/DTD/sodipodi-0.dtd"
   xmlns:inkscape="http://www.inkscape.org/namespaces/inkscape"
   width="502.07001"
   height="502.07001"
   id="svg20871"
   version="1.1"
   inkscape:version="0.48.1 "
   sodipodi:docname="Neues Dokument 8">
  <defs
     id="defs20873" />
  <sodipodi:namedview
     id="base"
     pagecolor="#ffffff"
     bordercolor="#666666"
     borderopacity="1.0"
     inkscape:pageopacity="0.0"
     inkscape:pageshadow="2"
     inkscape:zoom="0.65761719"
     inkscape:cx="90.903343"
     inkscape:cy="251.77949"
     inkscape:document-units="px"
     inkscape:current-layer="layer1"
     showgrid="false"
     fit-margin-top="0"
     fit-margin-left="0"
     fit-margin-right="0"
     fit-margin-bottom="0"
     inkscape:window-width="1024"
     inkscape:window-height="678"
     inkscape:window-x="-4"
     inkscape:window-y="-4"
     inkscape:window-maximized="1" />
  <metadata
     id="metadata20876">
    <rdf:RDF>
      <cc:Work
         rdf:about="">
        <dc:format>image/svg+xml</dc:format>
        <dc:type
           rdf:resource="http://purl.org/dc/dcmitype/StillImage" />
        <dc:title></dc:title>
      </cc:Work>
    </rdf:RDF>
  </metadata>
  <g
     inkscape:label="Ebene 1"
     inkscape:groupmode="layer"
     id="layer1"
     transform="translate(-259.09666,-38.769042)">
    <g
       id="g17484"
       transform="matrix(36.613926,0,0,-36.613926,510.03999,526.52773)">
      <path
         inkscape:connector-curvature="0"
         d="m 0,0 c -3.563,0 -6.462,2.901 -6.462,6.468 0,3.562 2.899,6.461 6.462,6.461 3.566,0 6.467,-2.899 6.467,-6.461 C 6.467,2.901 3.566,0 0,0"
         style="fill:#c2d963;fill-opacity:1;fill-rule:nonzero;stroke:none"
         id="path17486" />
    </g>
    <g
       id="g17488"
       transform="matrix(36.613926,0,0,-36.613926,510.05844,39.767545)">
      <path
         inkscape:connector-curvature="0"
         d="m 0,0 c -3.765,0 -6.827,-3.063 -6.827,-6.827 0,-3.767 3.062,-6.831 6.827,-6.831 3.767,0 6.831,3.064 6.831,6.831 C 6.831,-3.063 3.767,0 0,0 m 0,-0.728 c 3.366,0 6.103,-2.735 6.103,-6.099 0,-3.364 -2.737,-6.103 -6.103,-6.103 -3.363,0 -6.099,2.739 -6.099,6.103 0,3.364 2.736,6.099 6.099,6.099"
         style="fill:#c2d963;fill-opacity:1;fill-rule:nonzero;stroke:none"
         id="path17490" />
    </g>
    <g
       id="g17492"
       transform="matrix(36.613926,0,0,-36.613926,516.67443,285.08818)">
      <path
         inkscape:connector-curvature="0"
         d="m 0,0 c -1.896,0 -3.145,0.086 -3.435,0.75 -0.416,0.965 0.064,2.717 3.223,2.717 3.282,0 4.63,-1.933 4.63,-2.78 C 4.418,0.111 1.641,-0.041 0,0 m 4.354,-2.129 c 0.064,-0.128 -0.116,-0.641 -0.19,-0.686 -0.236,-0.149 -2,-0.65 -4.569,-0.65 -2.54,0 -3.364,0.244 -3.607,0.43 -0.056,0.028 -0.385,0.588 -0.311,0.745 0.107,0.13 1.628,-0.255 3.948,-0.255 2.312,0 4.549,0.49 4.729,0.416 m -9.605,1.664 c 0.232,0.177 0.596,0.465 0.971,0.703 0.856,-0.299 2.642,-0.469 4.345,-0.469 0.996,-0.024 2.386,0.019 3.414,0.159 -0.268,-0.324 0.092,-0.689 -0.069,-1.126 -1.017,0.697 -5.905,0.794 -8.661,0.733 m 5.039,4.179 C -3.68,3.714 -4.902,1.329 -4.706,0.449 -4.646,0.397 -4.57,0.346 -4.461,0.3 -4.892,0.027 -5.125,-0.192 -5.532,-0.511 l 0,-0.141 c 0.362,0.012 0.856,-0.023 1.232,-0.023 -0.515,-0.222 -0.312,-1.124 0.094,-1.272 -0.202,-0.117 -0.588,-0.148 -0.641,-0.32 0.053,-0.192 0.277,-0.846 0.375,-0.922 0.266,-0.191 1.432,-0.521 4.067,-0.521 2.642,0 4.448,0.543 4.685,0.695 0.138,0.084 0.28,0.568 0.298,0.96 -0.136,0.174 -0.224,0.161 -0.448,0.312 0.663,0.131 0.558,1.733 -0.031,1.829 0.385,0.108 0.608,0.247 0.608,0.42 0,1.231 -1.444,3.208 -4.919,3.208"
         style="fill:#000000;fill-opacity:1;fill-rule:nonzero;stroke:none"
         id="path17494" />
    </g>
    <g
       id="g17496"
       transform="matrix(36.613926,0,0,-36.613926,516.67443,285.08818)">
      <path
         inkscape:connector-curvature="0"
         d="m 0,0 c -1.896,0 -3.145,0.086 -3.435,0.75 -0.416,0.965 0.064,2.717 3.223,2.717 3.282,0 4.63,-1.933 4.63,-2.78 C 4.418,0.111 1.641,-0.041 0,0 z m 4.354,-2.129 c 0.064,-0.128 -0.116,-0.641 -0.19,-0.686 -0.236,-0.149 -2,-0.65 -4.569,-0.65 -2.54,0 -3.364,0.244 -3.607,0.43 -0.056,0.028 -0.385,0.588 -0.311,0.745 0.107,0.13 1.628,-0.255 3.948,-0.255 2.312,0 4.549,0.49 4.729,0.416 z m -9.605,1.664 c 0.232,0.177 0.596,0.465 0.971,0.703 0.856,-0.299 2.642,-0.469 4.345,-0.469 0.996,-0.024 2.386,0.019 3.414,0.159 -0.268,-0.324 0.092,-0.689 -0.069,-1.126 -1.017,0.697 -5.905,0.794 -8.661,0.733 z m 5.039,4.179 C -3.68,3.714 -4.902,1.329 -4.706,0.449 -4.646,0.397 -4.57,0.346 -4.461,0.3 -4.892,0.027 -5.125,-0.192 -5.532,-0.511 l 0,-0.141 c 0.362,0.012 0.856,-0.023 1.232,-0.023 -0.515,-0.222 -0.312,-1.124 0.094,-1.272 -0.202,-0.117 -0.588,-0.148 -0.641,-0.32 0.053,-0.192 0.277,-0.846 0.375,-0.922 0.266,-0.191 1.432,-0.521 4.067,-0.521 2.642,0 4.448,0.543 4.685,0.695 0.138,0.084 0.28,0.568 0.298,0.96 -0.136,0.174 -0.224,0.161 -0.448,0.312 0.663,0.131 0.558,1.733 -0.031,1.829 0.385,0.108 0.608,0.247 0.608,0.42 0,1.231 -1.444,3.208 -4.919,3.208 z"
         style="fill:none;stroke:#000000;stroke-width:0.01771867;stroke-linecap:round;stroke-linejoin:round;stroke-miterlimit:4;stroke-opacity:1;stroke-dasharray:none"
         id="path17498" />
    </g>
    <g
       id="g17500"
       transform="matrix(36.613926,0,0,-36.613926,641.53524,328.94434)">
      <path
         inkscape:connector-curvature="0"
         d="M 0,0 C 0.161,0.437 -0.199,0.802 0.069,1.125 -0.959,0.985 -2.35,0.943 -3.345,0.966 -5.048,0.966 -6.834,1.137 -7.69,1.436 -8.065,1.198 -8.429,0.91 -8.662,0.732 -5.905,0.793 -1.018,0.697 0,0"
         style="fill:#c2d963;fill-opacity:1;fill-rule:nonzero;stroke:none"
         id="path17502" />
    </g>
    <g
       id="g17504"
       transform="matrix(36.613926,0,0,-36.613926,358.39975,368.91942)">
      <path
         inkscape:connector-curvature="0"
         d="m 0,0 c -0.074,-0.157 0.255,-0.717 0.311,-0.745 0.243,-0.187 1.067,-0.431 3.607,-0.431 2.569,0 4.332,0.501 4.569,0.651 0.074,0.045 0.254,0.558 0.19,0.686 C 8.497,0.235 6.26,-0.255 3.948,-0.255 1.628,-0.255 0.106,0.129 0,0"
         style="fill:#c2d963;fill-opacity:1;fill-rule:nonzero;stroke:none"
         id="path17506" />
    </g>
    <g
       id="g17508"
       transform="matrix(36.613926,0,0,-36.613926,508.91609,158.13656)">
      <path
         inkscape:connector-curvature="0"
         d="m 0,0 c -3.159,0 -3.639,-1.752 -3.223,-2.718 0.29,-0.663 1.539,-0.749 3.435,-0.749 C 1.853,-3.508 4.63,-3.356 4.63,-2.781 4.63,-1.933 3.282,0 0,0"
         style="fill:#c2d963;fill-opacity:1;fill-rule:nonzero;stroke:none"
         id="path17510" />
    </g>
  </g>
</svg>
